<svg width="14" height="21" xmlns="http://www.w3.org/2000/svg" xmlns:xlink="http://www.w3.org/1999/xlink" xmlns:svgjs="http://svgjs.com/svgjs" viewBox="0.28 0 13.439 21" fill="#fff"><svg xmlns="http://www.w3.org/2000/svg" width="14" height="21" viewBox="1.003 1.989 12.803 20.006"><path paint-order="stroke fill markers" fill-rule="evenodd" d="M1.003 11.991c0-.635.256-1.233.721-1.682l7.884-7.625a2.522 2.522 0 0 1 3.478 0 2.323 2.323 0 0 1 0 3.364l-6.145 5.943 6.145 5.943a2.325 2.325 0 0 1 0 3.364 2.486 2.486 0 0 1-1.74.697 2.485 2.485 0 0 1-1.738-.697l-7.884-7.624a2.326 2.326 0 0 1-.72-1.683z"/></svg></svg>